HIERARCHY
ROOT Hips
{
    OFFSET 0.000000 0.000000 0.000000
    CHANNELS 6 Xposition Yposition Zposition Zrotation Xrotation Yrotation
    JOINT Spine
    {
        OFFSET -0.000000 7.236184 0.000000
        CHANNELS 3 Zrotation Xrotation Yrotation
        JOINT Spine1
        {
            OFFSET -0.000000 20.420147 0.000000
            CHANNELS 3 Zrotation Xrotation Yrotation
            JOINT Neck
            {
                OFFSET -0.000000 20.336288 1.848754
                CHANNELS 3 Zrotation Xrotation Yrotation
                JOINT Head
                {
                    OFFSET -0.000000 12.354461 -1.764923
                    CHANNELS 3 Zrotation Xrotation Yrotation
                    End Site
                    {
                        OFFSET -0.000000 22.061537 0.000000
                    }
                }
            }
            JOINT LeftShoulder
            {
                OFFSET 3.573296 18.396038 -0.314103
                CHANNELS 3 Zrotation Xrotation Yrotation
                JOINT LeftArm
                {
                    OFFSET 10.880760 0.000000 0.000000
                    CHANNELS 3 Zrotation Xrotation Yrotation
                    JOINT LeftForeArm
                    {
                        OFFSET 27.185530 0.000000 0.000000
                        CHANNELS 3 Zrotation Xrotation Yrotation
                        JOINT LeftHand
                        {
                            OFFSET 27.825975 0.000000 0.000000
                            CHANNELS 3 Zrotation Xrotation Yrotation
                            End Site
                            {
                                OFFSET 13.236923 0.000000 0.000000
                            }
                        }
                    }
                }
            }
            JOINT RightShoulder
            {
                OFFSET -3.474926 18.396038 -0.314103
                CHANNELS 3 Zrotation Xrotation Yrotation
                JOINT RightArm
                {
                    OFFSET -10.880760 0.000000 0.000000
                    CHANNELS 3 Zrotation Xrotation Yrotation
                    JOINT RightForeArm
                    {
                        OFFSET -27.185530 0.000000 0.000000
                        CHANNELS 3 Zrotation Xrotation Yrotation
                        JOINT RightHand
                        {
                            OFFSET -27.825975 0.000000 0.000000
                            CHANNELS 3 Zrotation Xrotation Yrotation
                            End Site
                            {
                                OFFSET -13.236923 0.000000 0.000000
                            }
                        }
                    }
                }
            }
        }
    }
    JOINT LeftUpLeg
    {
        OFFSET 8.824615 0.000000 0.000000
        CHANNELS 3 Zrotation Xrotation Yrotation
        JOINT LeftLeg
        {
            OFFSET -0.000000 -35.111282 0.000000
            CHANNELS 3 Zrotation Xrotation Yrotation
            JOINT LeftFoot
            {
                OFFSET -0.000000 -42.324711 0.000000
                CHANNELS 3 Zrotation Xrotation Yrotation
                JOINT LeftToeBase
                {
                    OFFSET -0.000000 -5.735999 13.236923
                    CHANNELS 3 Zrotation Xrotation Yrotation
                    End Site
                    {
                        OFFSET -0.000000 0.000000 3.529846
                    }
                }
            }
        }
    }
    JOINT RightUpLeg
    {
        OFFSET -8.824615 0.000000 0.000000
        CHANNELS 3 Zrotation Xrotation Yrotation
        JOINT RightLeg
        {
            OFFSET -0.000000 -35.111282 0.000000
            CHANNELS 3 Zrotation Xrotation Yrotation
            JOINT RightFoot
            {
                OFFSET -0.000000 -42.324711 0.000000
                CHANNELS 3 Zrotation Xrotation Yrotation
                JOINT RightToeBase
                {
                    OFFSET -0.000000 -5.735999 13.236923
                    CHANNELS 3 Zrotation Xrotation Yrotation
                    End Site
                    {
                        OFFSET -0.000000 0.000000 3.529846
                    }
                }
            }
        }
    }
}
MOTION
Frames:    8
Frame Time:    0.008333
2.455432    82.912483    109.419991    0.261717    -12.553296    -173.851578    -2.236453    -13.837575    -0.014436    1.274703    5.649759    0.194098    2.438441    6.857704    -3.075473    5.095603    -1.006589    -2.642112    -0.062380    17.009016    0.081006    -52.027710    39.358051    -36.373493    3.121876    -6.973160    -16.023245    16.024719    -6.310145    1.619533    7.219737    19.456673    -8.120323    44.073448    42.472805    31.831215    -3.207110    -8.715210    19.405624    -17.405901    -7.721425    -2.975720    1.561747    -19.424471    -5.927042    0.234397    18.071482    3.569701    -5.612637    -10.121061    -12.004086    -0.393380    -0.165066    0.436178    -2.634288    -12.343634    5.038041    2.975002    8.413831    2.031353    -1.076610    -6.424379    -15.646671    -0.236308    -0.372925    0.255717    
2.466524    82.889320    109.360214    0.170264    -12.475678    -173.758270    -2.311313    -13.767437    -0.027668    1.262561    5.654658    0.189302    2.423095    6.855151    -3.110062    5.110236    -1.032861    -2.673496    -0.076230    17.078432    0.105390    -52.161236    39.224014    -36.184299    3.103652    -6.969859    -16.081657    16.053209    -6.302445    1.654732    7.208094    19.444836    -8.152378    44.149872    42.472824    31.696138    -3.274972    -8.790586    19.608921    -17.433830    -7.774190    -3.006203    1.460121    -19.307098    -5.994019    0.235487    18.063669    3.551188    -5.616494    -10.124646    -12.018300    -0.394212    -0.176646    0.437109    -2.734981    -12.253705    4.956477    3.004081    8.523775    2.095682    -1.113705    -6.508207    -15.739429    -0.218570    -0.395051    0.236529    
2.477037    82.867966    109.304955    0.085906    -12.404505    -173.671097    -2.380231    -13.702252    -0.039930    1.251214    5.659052    0.184544    2.409371    6.852475    -3.142115    5.123271    -1.057697    -2.702676    -0.088708    17.142515    0.127906    -52.284595    39.097805    -36.008286    3.085210    -6.967816    -16.134901    16.079000    -6.296446    1.688403    7.197877    19.433535    -8.182741    44.220089    42.474880    31.570019    -3.338849    -8.862998    19.800009    -17.459478    -7.825085    -3.035013    1.366848    -19.200054    -6.054289    0.236516    18.058052    3.532009    -5.619761    -10.128133    -12.030987    -0.394959    -0.187327    0.437946    -2.827514    -12.173057    4.881656    3.031373    8.629716    2.155751    -1.148216    -6.587091    -15.827033    -0.201978    -0.415957    0.218581    
2.487819    82.847221    109.251068    0.004330    -12.336254    -173.584656    -2.446695    -13.638272    -0.051961    1.239820    5.662932    0.179376    2.396931    6.849450    -3.173482    5.135003    -1.083468    -2.731407    -0.099878    17.204803    0.149892    -52.406818    38.970955    -35.833973    3.064419    -6.967536    -16.184895    16.102938    -6.292515    1.722906    7.188772    19.421867    -8.213911    44.288105    42.480629    31.444851    -3.403220    -8.938259    19.992043    -17.484198    -7.878545    -3.063796    1.277104    -19.098795    -6.110160    0.237515    18.055744    3.509487    -5.622532    -10.131962    -12.042418    -0.395707    -0.197520    0.438784    -2.916238    -12.099725    4.809257    3.057988    8.741325    2.214966    -1.182172    -6.666551    -15.914765    -0.185585    -0.437183    0.200846    
2.499035    82.827362    109.199188    -0.072955    -12.272304    -173.499405    -2.509509    -13.576659    -0.064075    1.228376    5.666543    0.173977    2.386102    6.845693    -3.203830    5.145363    -1.110094    -2.759390    -0.109253    17.264626    0.170834    -52.527760    38.843494    -35.661896    3.040734    -6.970005    -16.230103    16.123831    -6.291821    1.758361    7.181148    19.409822    -8.246033    44.352730    42.491547    31.321449    -3.468305    -9.017616    20.185003    -17.507351    -7.935822    -3.092106    1.192593    -19.006077    -6.159729    0.238431    18.058205    3.482230    -5.624414    -10.136395    -12.051949    -0.396413    -0.207447    0.439574    -2.999485    -12.037082    4.741127    3.083987    8.860764    2.273216    -1.215552    -6.746549    -16.003683    -0.169415    -0.459289    0.183351    
2.510903    82.808456    109.149574    -0.145432    -12.213506    -173.415298    -2.568222    -13.517336    -0.076267    1.216644    5.669407    0.168170    2.377378    6.840670    -3.233019    5.154068    -1.137734    -2.786596    -0.116500    17.322332    0.190770    -52.647869    38.713818    -35.492115    3.012953    -6.975779    -16.269409    16.141384    -6.295019    1.795133    7.175592    19.397272    -8.279900    44.413498    42.508926    31.199625    -3.534640    -9.102393    20.380436    -17.528719    -7.998127    -3.119985    1.113897    -18.923941    -6.201941    0.239078    18.066929    3.448703    -5.625028    -10.141671    -12.058646    -0.397124    -0.216861    0.440370    -3.076440    -11.988325    4.677647    3.109174    8.991774    2.330298    -1.247801    -6.828047    -16.093988    -0.153495    -0.482388    0.166127    
2.523477    82.790756    109.102989    -0.211742    -12.160933    -173.333374    -2.621768    -13.460933    -0.088275    1.204614    5.671441    0.161501    2.371850    6.834617    -3.260349    5.160055    -1.166985    -2.812503    -0.121206    17.376955    0.208991    -52.766354    38.582615    -35.325855    2.980886    -6.985536    -16.301596    16.154404    -6.302973    1.832867    7.172499    19.383879    -8.315383    44.469524    42.533638    31.080139    -3.601557    -9.192608    20.577099    -17.547405    -8.065773    -3.146653    1.042496    -18.854532    -6.235327    0.239557    18.082890    3.408070    -5.624000    -10.148048    -12.061749    -0.397892    -0.225118    0.441228    -3.145628    -11.956201    4.620234    3.133515    9.135445    2.385473    -1.278478    -6.910408    -16.185226    -0.137914    -0.506774    0.149270    
2.536889    82.774231    109.059616    -0.271819    -12.114866    -173.253891    -2.670230    -13.407240    -0.100611    1.192167    5.672623    0.154131    2.369559    6.826461    -3.285593    5.163891    -1.197166    -2.836849    -0.123070    17.428429    0.225457    -52.883137    38.449108    -35.163418    2.943724    -6.999718    -16.325897    16.162449    -6.316244    1.871548    7.172104    19.369848    -8.352980    44.520256    42.565971    30.963600    -3.668728    -9.288700    20.775557    -17.563307    -8.139262    -3.171791    0.978519    -18.798828    -6.259397    0.239744    18.106993    3.359413    -5.621004    -10.155772    -12.060351    -0.398761    -0.232744    0.442198    -3.206898    -11.942661    4.569297    3.157198    9.294320    2.438206    -1.307301    -6.993940    -16.277182    -0.122781    -0.532896    0.132895    
